<?xml version="1.0" encoding="UTF-8" standalone="no"?>
<svg
   width="1690.9873"
   zoomAndPan="magnify"
   viewBox="0 0 1268.2405 460.06552"
   height="613.42072"
   preserveAspectRatio="xMidYMid"
   version="1.0"
   id="svg36"
   sodipodi:docname="JDAV Logo - Sektion Pfarrkirchen - RGB Light Grau.svg"
   inkscape:version="1.3.2 (091e20e, 2023-11-25, custom)"
   xmlns:inkscape="http://www.inkscape.org/namespaces/inkscape"
   xmlns:sodipodi="http://sodipodi.sourceforge.net/DTD/sodipodi-0.dtd"
   xmlns="http://www.w3.org/2000/svg"
   xmlns:svg="http://www.w3.org/2000/svg">
  <sodipodi:namedview
     id="namedview36"
     pagecolor="#ffffff"
     bordercolor="#999999"
     borderopacity="1"
     inkscape:showpageshadow="0"
     inkscape:pageopacity="0"
     inkscape:pagecheckerboard="0"
     inkscape:deskcolor="#d1d1d1"
     inkscape:zoom="0.36064189"
     inkscape:cx="1175.6815"
     inkscape:cy="661.32084"
     inkscape:window-width="1920"
     inkscape:window-height="1009"
     inkscape:window-x="-8"
     inkscape:window-y="-8"
     inkscape:window-maximized="1"
     inkscape:current-layer="svg36" />
  <defs
     id="defs2">
    <g
       id="g1" />
    <clipPath
       id="009af00435">
      <path
         d="M 0.671875,5 H 339 V 356 H 0.671875 Z m 0,0"
         clip-rule="nonzero"
         id="path1" />
    </clipPath>
    <clipPath
       id="bc5b556b4e">
      <path
         d="M 0.671875,0 H 1775.3242 V 658 H 0.671875 Z m 0,0"
         clip-rule="nonzero"
         id="path2" />
    </clipPath>
  </defs>
  <g
     clip-path="url(#009af00435)"
     id="g3"
     style="fill:#57ab27;fill-opacity:1;stroke-width:0.99975;stroke-dasharray:none"
     transform="translate(-0.671875,0.113281)">
    <path
       fill="#707680"
       d="m 295.71094,82.886719 c -33.29688,1.058593 -69.98438,27.839841 -69.98438,27.839841 -3.625,-19.44531 7.71875,-41.660154 8.44922,-50.136716 0.64844,-7.65625 -7.33203,-21.746094 -25.65625,-7.183594 -17.88672,14.214844 -24.10937,45.4375 -24.10937,45.4375 C 173.55859,89.75 164.94141,59.976562 160.44531,31.714844 159.81641,27.789062 156.60156,6.371094 145.375,5.703125 132.24219,4.929688 119.69141,24.777344 118.74609,47.199219 c -1.32031,31.125 19.32032,63.117191 19.32032,63.117191 -5.36719,-0.39844 -17.97266,-6.26563 -25.17188,-10.27344 C 106,96.195312 99.695312,90.089844 91.699219,88.972656 83.703125,87.855469 76.914062,93.355469 78.914062,103.27344 c 2.855469,14.17578 25.878908,32.08203 25.878908,32.08203 -16.488282,-1.69531 -51.300782,-3.03516 -72.132814,1.82031 -27.953125,6.53516 -31.988281,15.67188 -31.988281,24.54297 0,7.50391 9.023437,20.07812 36.769531,27.21094 40.828125,10.5 76.335934,-3.82813 76.335934,-3.82813 -8.66406,4.13672 -16.171871,13.46094 -22.960934,26.4336 -6.789062,12.96484 -12.652344,31.5664 -20.589844,45.63281 -4.390624,7.77734 -13.121093,21.09765 -8.257812,31.22656 5.546875,11.57422 18.054688,9.64063 29.878906,3.83203 15.941404,-7.82422 35.773434,-42.79297 44.781254,-45.32812 0.79296,9.29297 -3.88282,31.9414 -2.04688,41.16015 1.88281,9.47266 10.27344,9.77344 14.88281,7.11328 9.86328,-5.68359 20.02735,-35.20312 20.02735,-35.20312 0,0 -0.13672,27.61719 4.05859,48.82031 2.45313,12.36328 13.23828,46.47266 28.04688,46.47266 16.88281,0 18.76562,-40.78516 19.54296,-69.63281 0.78907,-28.99219 -1.03515,-48 -1.03515,-48 0,0 15.47656,-1.95704 41.12109,22.73046 26.1211,25.16016 49.83985,30.96094 59.50781,22.75391 7.19141,-6.10156 9.9375,-20.18359 -13.22265,-51.70312 -23.25391,-31.64844 -45.47266,-43.8711 -45.47266,-43.8711 5.73047,0.83203 23.38281,3.77735 34.2461,3.28906 10.85937,-0.48046 18.4375,-3.41015 18.4375,-12.85156 0,-19.1875 -50.6836,-30.60937 -50.6836,-30.60937 9.89844,-12.28907 48.1875,-22.04688 60.875,-28.28125 12.00781,-5.89063 14.9961,-12.14844 13.80469,-18.60156 -0.875,-4.730474 -9.70313,-18.652349 -43,-17.597661 z M 157.6875,128.23437 c 2.09766,-9.44921 11.16016,-14.33593 21.59766,-15.30859 10.4414,-0.97656 21.59765,3.00391 23.87109,12.56641 2.26172,9.5625 -7.92188,16.98047 -22.89453,19.09375 -14.02344,1.98047 -25.11719,-4.89063 -22.57422,-16.35938 z M 130.41406,147.75 c 4.58203,-5.13281 12.63672,-8.01172 18.73047,-2.96875 6.09375,5.03906 6.72266,13.88672 0.51563,21.43359 -6.21094,7.53907 -16.80079,7.85547 -21.89063,2.26563 -5.08984,-5.58985 -1.93359,-15.60547 2.64453,-20.73047 z m 19.84766,78.99609 c -10.63672,4.67969 -22.40234,-3.47656 -25.29297,-15.0625 -2.94141,-11.76562 2.76953,-22.95312 10.46094,-25.39062 9.75,-3.09375 18.5625,2.07031 23.66797,13.6914 4.80078,10.92969 2.35937,21.83985 -8.84375,26.76172 z m 42.45312,11.76953 c -7.80859,1.64063 -17.27343,-0.16796 -19.47656,-7.90234 -2.64453,-9.27734 3.58203,-15.91797 13.95313,-18.05859 10.37109,-2.14453 18.55468,4.53125 18.89453,11.08203 0.34375,6.55078 -5.5625,13.24219 -13.3711,14.8789 z M 207.875,187.06641 c -4.91406,13.75 -20.74219,18.51171 -32.83984,12.90234 -11.59375,-4.89844 -17.4961,-16.63672 -13.375,-30.29688 3.47656,-11.55078 16.44921,-19.35156 29.51953,-15.39453 14.13281,4.28125 21.92968,19.73438 16.69531,32.78907 z m 4.73047,-45.95704 c 5.58984,-5.37109 14.99609,-5.89843 21.75,-0.70312 6.8164,5.24609 7.59765,14.49219 3.78125,18.9375 -4.09766,4.76562 -13.02344,7.85547 -20.23438,2.16016 -8.51953,-6.72266 -10.8789,-15.01954 -5.28906,-20.39454 z m 37.12109,61.3125 c -1.76953,10.41797 -11.85156,20.48829 -22.44922,18.87891 -10.59375,-1.62891 -17.17578,-15.32031 -11.97265,-29.02734 5.19922,-13.70703 15.25781,-18.17188 24.3164,-14.25391 9.375,4.0625 11.86328,13.98438 10.10547,24.40234 z m 0,0"
       fill-opacity="1"
       fill-rule="nonzero"
       id="path3"
       style="fill:#57ab27;fill-opacity:1;stroke-width:0.99975;stroke-dasharray:none" />
  </g>
  <path
     fill="#707680"
     d="m 1086.9609,90.792969 c 0,0 -0.023,0 -0.023,0 -5.5235,-1.851563 -12.168,-2.066407 -17.7149,-2.066407 -21.8984,0 -27.8632,5.996094 -36.4882,34.527348 l -15.5313,69.08984 c -3.4531,12.76172 -14.0508,19.51562 -19.23826,19.51562 -8.6328,0 -15.78905,-6.0039 -20.09766,-19.51562 L 958.87499,111.24609 C 954.55859,96.234375 941.73828,88.726562 927.07031,88.726562 h -11.59375 c -12.08203,0 -28.35157,5.996094 -17.13282,34.527348 l 54.36329,138.83984 c 6.04296,17.26562 21.57812,24.03125 31.93359,24.03125 h 19.85548 c 16.3867,0 27.6054,-8.25781 34.5078,-25.52344 l 48.0234,-120.80078 v -0.0703 l 6.0039,-15.33203 c 11.211,-29.570315 -6.0547,-33.589847 -6.0781,-33.597659 z m 0,0"
     fill-opacity="1"
     fill-rule="nonzero"
     id="path4"
     style="fill:#57ab27;fill-opacity:1;stroke-width:0.99975;stroke-dasharray:none" />
  <path
     fill="#707680"
     d="m 787.79687,88.710937 c -64.89453,0 -81.92969,27.878903 -81.92969,41.078123 0,12.46875 12.16406,14.67188 23.52735,14.67188 34.0664,0 31.625,-24.20703 62.45703,-24.20703 15.40625,0 28.38672,9.53906 28.38672,24.20703 0,8.07031 -8.11719,17.60546 -34.88672,20.54296 -65.70313,8.07032 -94.88282,33.00391 -94.88282,66.01563 0,33.01172 24.32422,55.75 69.75,55.75 27.58594,0 40.54297,-11.73438 59.20313,-11.73438 10.54297,0 18.66016,6.60157 35.69531,6.60157 13.78906,0 23.52344,-3.66407 23.52344,-18.33985 V 153.27344 c 0,-52.8125 -34.06641,-64.546878 -90.83594,-64.546878 z m -8.85938,160.371093 c -17.66406,0 -28.90625,-10.89844 -28.90625,-23.23828 0,-20.33203 33.72657,-30.50391 50.59375,-30.50391 14.44922,0 20.07032,7.98828 20.07032,17.4336 0,18.88281 -20.8711,36.30078 -41.75,36.30078 z m 0,0"
     fill-opacity="1"
     fill-rule="nonzero"
     id="path5"
     style="fill:#57ab27;fill-opacity:1;stroke-width:0.99975;stroke-dasharray:none" />
  <path
     fill="#707680"
     d="m 417.89062,88.71875 h -12.98047 c -12.97266,0 -23.52344,11.35547 -23.52344,25.95312 v 162.97657 c 0,14.39843 -2.80078,23.79687 -16.17968,33.89843 -7.19532,5.42578 -11.39844,13.07813 -11.39844,23.42578 0,21.1875 13.47265,26.09766 27.02344,26.09766 24.01171,0 38.42578,-10.82422 46.30078,-19.41016 0,0 -0.008,-0.0156 -0.0156,-0.0156 10.00391,-10.82422 15.91797,-25.33984 15.91797,-40.73047 v -182.1875 c 0,-20.28906 -8.10937,-30.00781 -25.14453,-30.00781 z m 0,0"
     fill-opacity="1"
     fill-rule="nonzero"
     id="path6"
     style="fill:#57ab27;fill-opacity:1;stroke-width:0.99975;stroke-dasharray:none" />
  <path
     fill="#707680"
     d="M 442.47265,9.757812 C 436.55859,2.046875 426.71093,0 414.57031,0 c -22.16797,0 -31.59375,6.167969 -35.49219,14.238281 -1.97656,3.726562 -3.11719,8.3125 -3.11719,13.984375 0,13.679687 3.91406,28.34375 38.125,28.34375 18.57031,0 34.21094,-6.839844 34.21094,-29.324219 0,-6.535156 -1.56641,-12.679687 -5.80859,-17.484375 z m 0,0"
     fill-opacity="1"
     fill-rule="nonzero"
     id="path7"
     style="fill:#57ab27;fill-opacity:1;stroke-width:0.99975;stroke-dasharray:none" />
  <path
     fill="#707680"
     d="m 649.23437,0 h -11.4375 c -7.36719,0 -13.82813,3.851562 -17.5,9.757812 h -0.0352 c -0.0391,0.074219 -0.0625,0.15625 -0.0976,0.234375 -1.94141,3.214844 -3.08203,7 -3.08203,11.128906 l -0.0352,51.53125 c -0.81641,15.398438 -4.05469,21.933594 -16.22656,21.933594 -14.60547,0 -22.70703,-5.867187 -47.05469,-5.867187 -34.87891,0 -86.79297,20.90234 -86.79297,99.39062 0,78.48828 53.54688,98.65235 87.60156,98.65235 30.01953,0 32.44922,-10.26563 52.73047,-10.26563 12.97266,0 17.03125,5.86719 37.30469,5.86719 18.65234,0 26.76953,-8.07031 26.76953,-23.47266 V 24.417969 C 671.37887,7.914062 664.23825,0 649.23434,0 Z m -81.22266,246.03906 c -22.0039,0 -44.78906,-17.46875 -44.78906,-59.87109 0,-50.60938 31.44141,-59.87891 47.14844,-59.87891 26.73047,0 45.58203,18.84766 45.58203,57.14063 0,35.57031 -14.92969,62.60937 -47.94141,62.60937 z m 0,0"
     fill-opacity="1"
     fill-rule="nonzero"
     id="path8"
     style="fill:#57ab27;fill-opacity:1;stroke-width:0.99975;stroke-dasharray:none" />
  <g
     fill="#707680"
     fill-opacity="1"
     id="g30"
     style="fill:#57ab27;fill-opacity:1;stroke-width:0.99975;stroke-dasharray:none"
     transform="translate(-0.671875,0.113281)">
    <g
       transform="translate(466.57,458.26473)"
       id="g11"
       style="fill:#57ab27;fill-opacity:1;stroke-width:0.99975;stroke-dasharray:none">
      <g
         id="g10"
         style="fill:#57ab27;fill-opacity:1;stroke-width:0.99975;stroke-dasharray:none">
        <path
           d="M 29.046875,-32.5625 V 0 h -16.96875 v -104.73438 h 38.375 c 23.75,0 35.625,11.726568 35.625,35.17188 0,11.824219 -2.960937,20.949219 -8.875,27.375 -5.90625,6.417969 -14.824219,9.625 -26.75,9.625 z m 21.25,-14.6875 c 6.320313,0 10.957031,-1.90625 13.90625,-5.71875 2.957031,-3.820312 4.4375,-9.351562 4.4375,-16.59375 0,-7.238281 -1.480469,-12.460938 -4.4375,-15.671875 -2.949219,-3.207031 -7.585937,-4.8125 -13.90625,-4.8125 h -21.25 V -47.25 Z m 0,0"
           id="path10"
           style="fill:#57ab27;fill-opacity:1;stroke-width:0.99975;stroke-dasharray:none" />
      </g>
    </g>
    <g
       transform="translate(556.92439,458.26473)"
       id="g13"
       style="fill:#57ab27;fill-opacity:1;stroke-width:0.99975;stroke-dasharray:none">
      <g
         id="g12"
         style="fill:#57ab27;fill-opacity:1;stroke-width:0.99975;stroke-dasharray:none">
        <path
           d="M 30.125,0 H 13.609375 v -62.21875 h -8.875 v -14.234375 h 8.875 v -4.890625 c 0,-7.332031 0.6875,-13.085938 2.0625,-17.265625 1.375,-4.187505 3.640625,-7.117185 6.796875,-8.796875 3.164062,-1.67578 7.398438,-2.51563 12.703125,-2.51563 1.726563,0 3.890625,0.13282 6.484375,0.39063 2.601562,0.25 4.921875,0.5 6.953125,0.75 2.039063,0.25 3.0625,0.375 3.0625,0.375 l -0.140625,13.609375 c 0,0 -0.695312,-0.01953 -2.078125,-0.0625 -1.375,-0.05078 -3.007813,-0.101563 -4.890625,-0.15625 -1.886719,-0.05078 -3.640625,-0.07813 -5.265625,-0.07813 -3.46875,0 -5.867187,0.996094 -7.1875,2.984375 -1.324219,1.980474 -1.984375,5.621099 -1.984375,10.92188 v 4.734375 H 50.296875 V -62.21875 H 30.125 Z m 0,0"
           id="path11"
           style="fill:#57ab27;fill-opacity:1;stroke-width:0.99975;stroke-dasharray:none" />
      </g>
    </g>
    <g
       transform="translate(609.82222,458.26473)"
       id="g15"
       style="fill:#57ab27;fill-opacity:1;stroke-width:0.99975;stroke-dasharray:none">
      <g
         id="g14"
         style="fill:#57ab27;fill-opacity:1;stroke-width:0.99975;stroke-dasharray:none">
        <path
           d="m 66.65625,-18.046875 c 0.207031,2.25 0.820312,3.914063 1.84375,4.984375 1.019531,1.0625 2.648438,1.746094 4.890625,2.046875 L 72.921875,1.6875 c -4.6875,0 -8.539063,-0.386719 -11.546875,-1.15625 -3,-0.757812 -5.929688,-2.257812 -8.78125,-4.5 0,0 -1.199219,0.484375 -3.59375,1.453125 -2.398438,0.96875 -5.453125,1.914063 -9.171875,2.828125 -3.71875,0.914062 -7.667969,1.375 -11.84375,1.375 -15.1875,0 -22.78125,-8.101562 -22.78125,-24.3125 0,-8.15625 2.160156,-13.863281 6.484375,-17.125 4.332031,-3.257812 10.578125,-5.25 18.734375,-5.96875 l 19.71875,-1.671875 v -5.515625 c 0,-4.175781 -0.917969,-7.050781 -2.75,-8.625 -1.835937,-1.582031 -4.636719,-2.375 -8.40625,-2.375 -2.542969,0 -5.449219,0.07813 -8.71875,0.234375 -3.261719,0.148437 -6.421875,0.324219 -9.484375,0.53125 -3.054688,0.199219 -5.574219,0.375 -7.5625,0.53125 C 11.238281,-62.453125 10.25,-62.375 10.25,-62.375 L 9.625,-74.15625 c 0,0 0.914062,-0.203125 2.75,-0.609375 1.84375,-0.40625 4.289062,-0.863281 7.34375,-1.375 3.0625,-0.507813 6.398438,-0.96875 10.015625,-1.375 3.625,-0.40625 7.164063,-0.609375 10.625,-0.609375 9.375,0 16.097656,2.015625 20.171875,6.046875 4.082031,4.023437 6.125,10.414063 6.125,19.171875 z m -34.25,-15.890625 c -7.03125,0.605469 -10.546875,4.21875 -10.546875,10.84375 0,3.46875 0.765625,6.199219 2.296875,8.1875 1.53125,1.992188 3.875,2.984375 7.03125,2.984375 2.957031,0 5.890625,-0.28125 8.796875,-0.84375 2.90625,-0.5625 5.320313,-1.125 7.25,-1.6875 1.9375,-0.5625 2.90625,-0.84375 2.90625,-0.84375 V -35.625 Z m 0,0"
           id="path13"
           style="fill:#57ab27;fill-opacity:1;stroke-width:0.99975;stroke-dasharray:none" />
      </g>
    </g>
    <g
       transform="translate(687.33436,458.26473)"
       id="g17"
       style="fill:#57ab27;fill-opacity:1;stroke-width:0.99975;stroke-dasharray:none">
      <g
         id="g16"
         style="fill:#57ab27;fill-opacity:1;stroke-width:0.99975;stroke-dasharray:none">
        <path
           d="m 10.09375,-76.453125 h 16.515625 v 9.1875 c 0,0 1.269531,-0.738281 3.8125,-2.21875 2.550781,-1.476563 5.8125,-3.082031 9.78125,-4.8125 C 44.179688,-76.035156 48.3125,-77.3125 52.59375,-78.125 v 16.65625 c -4.585938,0.917969 -8.839844,2.015625 -12.765625,3.296875 -3.929687,1.273437 -7.089844,2.390625 -9.484375,3.359375 -2.398438,0.96875 -3.59375,1.453125 -3.59375,1.453125 V 0 H 10.09375 Z m 0,0"
           id="path15"
           style="fill:#57ab27;fill-opacity:1;stroke-width:0.99975;stroke-dasharray:none" />
      </g>
    </g>
    <g
       transform="translate(742.52545,458.26473)"
       id="g19"
       style="fill:#57ab27;fill-opacity:1;stroke-width:0.99975;stroke-dasharray:none">
      <g
         id="g18"
         style="fill:#57ab27;fill-opacity:1;stroke-width:0.99975;stroke-dasharray:none">
        <path
           d="m 10.09375,-76.453125 h 16.515625 v 9.1875 c 0,0 1.269531,-0.738281 3.8125,-2.21875 2.550781,-1.476563 5.8125,-3.082031 9.78125,-4.8125 C 44.179688,-76.035156 48.3125,-77.3125 52.59375,-78.125 v 16.65625 c -4.585938,0.917969 -8.839844,2.015625 -12.765625,3.296875 -3.929687,1.273437 -7.089844,2.390625 -9.484375,3.359375 -2.398438,0.96875 -3.59375,1.453125 -3.59375,1.453125 V 0 H 10.09375 Z m 0,0"
           id="path17"
           style="fill:#57ab27;fill-opacity:1;stroke-width:0.99975;stroke-dasharray:none" />
      </g>
    </g>
    <g
       transform="translate(797.71654,458.26473)"
       id="g21"
       style="fill:#57ab27;fill-opacity:1;stroke-width:0.99975;stroke-dasharray:none">
      <g
         id="g20"
         style="fill:#57ab27;fill-opacity:1;stroke-width:0.99975;stroke-dasharray:none">
        <path
           d="M 10.09375,0 V -108.25 H 26.75 v 62.53125 L 36.234375,-46.625 54.28125,-76.453125 H 72.921875 L 50.90625,-40.671875 74.15625,0 H 55.34375 L 36.6875,-32.265625 26.75,-31.1875 V 0 Z m 0,0"
           id="path19"
           style="fill:#57ab27;fill-opacity:1;stroke-width:0.99975;stroke-dasharray:none" />
      </g>
    </g>
    <g
       transform="translate(874.00561,458.26473)"
       id="g23"
       style="fill:#57ab27;fill-opacity:1;stroke-width:0.99975;stroke-dasharray:none">
      <g
         id="g22"
         style="fill:#57ab27;fill-opacity:1;stroke-width:0.99975;stroke-dasharray:none">
        <path
           d="M 10.09375,-107.03125 H 26.75 V -89.4375 H 10.09375 Z m 0,30.578125 H 26.75 V 0 H 10.09375 Z m 0,0"
           id="path21"
           style="fill:#57ab27;fill-opacity:1;stroke-width:0.99975;stroke-dasharray:none" />
      </g>
    </g>
    <g
       transform="translate(910.85063,458.26473)"
       id="g25"
       style="fill:#57ab27;fill-opacity:1;stroke-width:0.99975;stroke-dasharray:none">
      <g
         id="g24"
         style="fill:#57ab27;fill-opacity:1;stroke-width:0.99975;stroke-dasharray:none">
        <path
           d="m 10.09375,-76.453125 h 16.515625 v 9.1875 c 0,0 1.269531,-0.738281 3.8125,-2.21875 2.550781,-1.476563 5.8125,-3.082031 9.78125,-4.8125 C 44.179688,-76.035156 48.3125,-77.3125 52.59375,-78.125 v 16.65625 c -4.585938,0.917969 -8.839844,2.015625 -12.765625,3.296875 -3.929687,1.273437 -7.089844,2.390625 -9.484375,3.359375 -2.398438,0.96875 -3.59375,1.453125 -3.59375,1.453125 V 0 H 10.09375 Z m 0,0"
           id="path23"
           style="fill:#57ab27;fill-opacity:1;stroke-width:0.99975;stroke-dasharray:none" />
      </g>
    </g>
    <g
       transform="translate(966.04172,458.26473)"
       id="g27"
       style="fill:#57ab27;fill-opacity:1;stroke-width:0.99975;stroke-dasharray:none">
      <g
         id="g26"
         style="fill:#57ab27;fill-opacity:1;stroke-width:0.99975;stroke-dasharray:none">
        <path
           d="m 38.6875,-78.125 c 2.03125,0 4.34375,0.15625 6.9375,0.46875 2.601562,0.304688 5.128906,0.632812 7.578125,0.984375 2.445313,0.355469 4.457031,0.6875 6.03125,1 1.582031,0.304687 2.375,0.453125 2.375,0.453125 L 61,-62.078125 c 0,0 -1.101562,-0.09766 -3.296875,-0.296875 -2.1875,-0.207031 -4.683594,-0.410156 -7.484375,-0.609375 -2.804688,-0.207031 -5.171875,-0.3125 -7.109375,-0.3125 -5.292969,0 -9.34375,0.792969 -12.15625,2.375 -2.804687,1.574219 -4.742187,4.09375 -5.8125,7.5625 -1.0625,3.46875 -1.59375,8.15625 -1.59375,14.0625 0,6.523437 0.484375,11.695313 1.453125,15.515625 0.96875,3.824219 2.878906,6.554688 5.734375,8.1875 2.851563,1.625 7.03125,2.4375 12.53125,2.4375 1.9375,0 4.304687,-0.09766 7.109375,-0.296875 2.800781,-0.207031 5.296875,-0.410156 7.484375,-0.609375 2.195313,-0.207031 3.296875,-0.3125 3.296875,-0.3125 l 0.453125,13.3125 c 0,0 -0.820313,0.125 -2.453125,0.375 -1.625,0.25 -3.6875,0.578125 -6.1875,0.984375 -2.492188,0.414063 -5.0625,0.75 -7.71875,1 -2.648438,0.257813 -4.9375,0.390625 -6.875,0.390625 -7.84375,0 -14.089844,-1.375 -18.734375,-4.125 -4.636719,-2.757812 -7.949219,-7.144531 -9.9375,-13.15625 -1.980469,-6.007812 -2.96875,-13.910156 -2.96875,-23.703125 0,-13.65625 2.46875,-23.539063 7.40625,-29.65625 C 19.085938,-75.066406 27.269531,-78.125 38.6875,-78.125 Z m 0,0"
           id="path25"
           style="fill:#57ab27;fill-opacity:1;stroke-width:0.99975;stroke-dasharray:none" />
      </g>
    </g>
    <g
       transform="translate(1033.6164,458.26473)"
       id="g29"
       style="fill:#57ab27;fill-opacity:1;stroke-width:0.99975;stroke-dasharray:none">
      <g
         id="g28"
         style="fill:#57ab27;fill-opacity:1;stroke-width:0.99975;stroke-dasharray:none">
        <path
           d="M 10.09375,0 V -108.25 H 26.75 v 35.78125 c 0,0 1.066406,-0.484375 3.203125,-1.453125 2.144531,-0.96875 4.847656,-1.910156 8.109375,-2.828125 3.269531,-0.914062 6.484375,-1.375 9.640625,-1.375 7.132813,0 12.585937,1.351562 16.359375,4.046875 3.769531,2.699219 6.394531,6.804687 7.875,12.3125 1.476562,5.5 2.21875,12.433594 2.21875,20.796875 V 0 H 57.484375 v -40.515625 c 0,-7.644531 -0.792969,-13.351563 -2.375,-17.125 -1.574219,-3.769531 -5.320313,-5.65625 -11.234375,-5.65625 -2.75,0 -5.453125,0.28125 -8.109375,0.84375 -2.648437,0.5625 -4.8125,1.125 -6.5,1.6875 C 27.585938,-60.210938 26.75,-59.9375 26.75,-59.9375 V 0 Z m 0,0"
           id="path27"
           style="fill:#57ab27;fill-opacity:1;stroke-width:0.99975;stroke-dasharray:none" />
      </g>
    </g>
  </g>
  <g
     fill="#707680"
     fill-opacity="1"
     id="g33"
     style="fill:#57ab27;fill-opacity:1;stroke-width:0.99975;stroke-dasharray:none"
     transform="translate(-0.671875,0.113281)">
    <g
       transform="translate(1117.091,458.26473)"
       id="g32"
       style="fill:#57ab27;fill-opacity:1;stroke-width:0.99975;stroke-dasharray:none">
      <g
         id="g31"
         style="fill:#57ab27;fill-opacity:1;stroke-width:0.99975;stroke-dasharray:none">
        <path
           d="m 40.671875,-12.84375 c 3.050781,0 6.207031,-0.07031 9.46875,-0.21875 3.269531,-0.15625 6.304687,-0.3125 9.109375,-0.46875 2.800781,-0.15625 5.09375,-0.304688 6.875,-0.453125 1.78125,-0.15625 2.671875,-0.234375 2.671875,-0.234375 l 0.3125,12.390625 c 0,0 -0.96875,0.179687 -2.90625,0.53125 -1.9375,0.355469 -4.4375,0.761719 -7.5,1.21875 C 55.648438,0.378906 52.3125,0.785156 48.6875,1.140625 45.070312,1.503906 41.582031,1.6875 38.21875,1.6875 26.800781,1.6875 18.644531,-1.472656 13.75,-7.796875 8.863281,-14.117188 6.421875,-24.003906 6.421875,-37.453125 c 0,-13.96875 2.898437,-24.238281 8.703125,-30.8125 5.8125,-6.570313 13.96875,-9.859375 24.46875,-9.859375 10.707031,0 18.734375,2.855469 24.078125,8.5625 5.351563,5.710938 8.03125,14.527344 8.03125,26.453125 l -1.0625,11.921875 h -47.40625 c 0.101563,6.117188 1.453125,10.703125 4.046875,13.765625 2.601562,3.054687 7.066406,4.578125 13.390625,4.578125 z m 14.671875,-31.1875 c 0,-7.644531 -1.226562,-12.941406 -3.671875,-15.890625 -2.449219,-2.957031 -6.476563,-4.4375 -12.078125,-4.4375 -5.605469,0 -9.734375,1.554687 -12.390625,4.65625 -2.648437,3.105469 -4.015625,8.328125 -4.109375,15.671875 z m 0,0"
           id="path30"
           style="fill:#57ab27;fill-opacity:1;stroke-width:0.99975;stroke-dasharray:none" />
      </g>
    </g>
  </g>
  <g
     fill="#707680"
     fill-opacity="1"
     id="g36"
     style="fill:#57ab27;fill-opacity:1;stroke-width:0.99975;stroke-dasharray:none"
     transform="translate(-0.671875,0.113281)">
    <g
       transform="translate(1194.7561,458.26473)"
       id="g35"
       style="fill:#57ab27;fill-opacity:1;stroke-width:0.99975;stroke-dasharray:none">
      <g
         id="g34"
         style="fill:#57ab27;fill-opacity:1;stroke-width:0.99975;stroke-dasharray:none">
        <path
           d="m 10.09375,0 v -76.453125 h 16.515625 v 4.75 c 0,0 1.066406,-0.535156 3.203125,-1.609375 2.144531,-1.070312 4.847656,-2.140625 8.109375,-3.203125 3.257813,-1.070313 6.519531,-1.609375 9.78125,-1.609375 7.132813,0 12.585937,1.351562 16.359375,4.046875 3.769531,2.699219 6.394531,6.804687 7.875,12.3125 1.476562,5.5 2.21875,12.433594 2.21875,20.796875 V 0 H 57.640625 v -40.515625 c 0,-7.644531 -0.820313,-13.351563 -2.453125,-17.125 -1.625,-3.769531 -5.34375,-5.65625 -11.15625,-5.65625 -2.960938,0 -5.765625,0.335937 -8.421875,1 -2.648437,0.65625 -4.789063,1.320313 -6.421875,1.984375 -1.625,0.65625 -2.4375,0.984375 -2.4375,0.984375 V 0 Z m 0,0"
           id="path33"
           style="fill:#57ab27;fill-opacity:1;stroke-width:0.99975;stroke-dasharray:none" />
      </g>
    </g>
  </g>
</svg>
