<?xml version="1.0" encoding="UTF-8" standalone="no"?>
<svg
   width="451.05209"
   zoomAndPan="magnify"
   viewBox="0 0 338.28908 349.58046"
   height="466.1073"
   preserveAspectRatio="xMidYMid"
   version="1.0"
   id="svg36"
   sodipodi:docname="JDAV Logo - Sektion Pfarrkirchen - RGB Light Grau.svg"
   inkscape:version="1.3.2 (091e20e, 2023-11-25, custom)"
   xmlns:inkscape="http://www.inkscape.org/namespaces/inkscape"
   xmlns:sodipodi="http://sodipodi.sourceforge.net/DTD/sodipodi-0.dtd"
   xmlns="http://www.w3.org/2000/svg"
   xmlns:svg="http://www.w3.org/2000/svg">
  <sodipodi:namedview
     id="namedview36"
     pagecolor="#ffffff"
     bordercolor="#999999"
     borderopacity="1"
     inkscape:showpageshadow="0"
     inkscape:pageopacity="0"
     inkscape:pagecheckerboard="0"
     inkscape:deskcolor="#d1d1d1"
     inkscape:zoom="0.36064189"
     inkscape:cx="1175.6815"
     inkscape:cy="653.00234"
     inkscape:window-width="1920"
     inkscape:window-height="1009"
     inkscape:window-x="-8"
     inkscape:window-y="-8"
     inkscape:window-maximized="1"
     inkscape:current-layer="svg36" />
  <defs
     id="defs2">
    <g
       id="g1" />
    <clipPath
       id="009af00435">
      <path
         d="M 0.671875,5 H 339 V 356 H 0.671875 Z m 0,0"
         clip-rule="nonzero"
         id="path1" />
    </clipPath>
    <clipPath
       id="bc5b556b4e">
      <path
         d="M 0.671875,0 H 1775.3242 V 658 H 0.671875 Z m 0,0"
         clip-rule="nonzero"
         id="path2" />
    </clipPath>
  </defs>
  <g
     clip-path="url(#009af00435)"
     id="g3"
     style="fill:#57ab27;fill-opacity:1;stroke-width:0.99975;stroke-dasharray:none"
     transform="translate(-0.671875,-5.6812475)">
    <path
       fill="#707680"
       d="m 295.71094,82.886719 c -33.29688,1.058593 -69.98438,27.839841 -69.98438,27.839841 -3.625,-19.44531 7.71875,-41.660154 8.44922,-50.136716 0.64844,-7.65625 -7.33203,-21.746094 -25.65625,-7.183594 -17.88672,14.214844 -24.10937,45.4375 -24.10937,45.4375 C 173.55859,89.75 164.94141,59.976562 160.44531,31.714844 159.81641,27.789062 156.60156,6.371094 145.375,5.703125 132.24219,4.929688 119.69141,24.777344 118.74609,47.199219 c -1.32031,31.125 19.32032,63.117191 19.32032,63.117191 -5.36719,-0.39844 -17.97266,-6.26563 -25.17188,-10.27344 C 106,96.195312 99.695312,90.089844 91.699219,88.972656 83.703125,87.855469 76.914062,93.355469 78.914062,103.27344 c 2.855469,14.17578 25.878908,32.08203 25.878908,32.08203 -16.488282,-1.69531 -51.300782,-3.03516 -72.132814,1.82031 -27.953125,6.53516 -31.988281,15.67188 -31.988281,24.54297 0,7.50391 9.023437,20.07812 36.769531,27.21094 40.828125,10.5 76.335934,-3.82813 76.335934,-3.82813 -8.66406,4.13672 -16.171871,13.46094 -22.960934,26.4336 -6.789062,12.96484 -12.652344,31.5664 -20.589844,45.63281 -4.390624,7.77734 -13.121093,21.09765 -8.257812,31.22656 5.546875,11.57422 18.054688,9.64063 29.878906,3.83203 15.941404,-7.82422 35.773434,-42.79297 44.781254,-45.32812 0.79296,9.29297 -3.88282,31.9414 -2.04688,41.16015 1.88281,9.47266 10.27344,9.77344 14.88281,7.11328 9.86328,-5.68359 20.02735,-35.20312 20.02735,-35.20312 0,0 -0.13672,27.61719 4.05859,48.82031 2.45313,12.36328 13.23828,46.47266 28.04688,46.47266 16.88281,0 18.76562,-40.78516 19.54296,-69.63281 0.78907,-28.99219 -1.03515,-48 -1.03515,-48 0,0 15.47656,-1.95704 41.12109,22.73046 26.1211,25.16016 49.83985,30.96094 59.50781,22.75391 7.19141,-6.10156 9.9375,-20.18359 -13.22265,-51.70312 -23.25391,-31.64844 -45.47266,-43.8711 -45.47266,-43.8711 5.73047,0.83203 23.38281,3.77735 34.2461,3.28906 10.85937,-0.48046 18.4375,-3.41015 18.4375,-12.85156 0,-19.1875 -50.6836,-30.60937 -50.6836,-30.60937 9.89844,-12.28907 48.1875,-22.04688 60.875,-28.28125 12.00781,-5.89063 14.9961,-12.14844 13.80469,-18.60156 -0.875,-4.730474 -9.70313,-18.652349 -43,-17.597661 z M 157.6875,128.23437 c 2.09766,-9.44921 11.16016,-14.33593 21.59766,-15.30859 10.4414,-0.97656 21.59765,3.00391 23.87109,12.56641 2.26172,9.5625 -7.92188,16.98047 -22.89453,19.09375 -14.02344,1.98047 -25.11719,-4.89063 -22.57422,-16.35938 z M 130.41406,147.75 c 4.58203,-5.13281 12.63672,-8.01172 18.73047,-2.96875 6.09375,5.03906 6.72266,13.88672 0.51563,21.43359 -6.21094,7.53907 -16.80079,7.85547 -21.89063,2.26563 -5.08984,-5.58985 -1.93359,-15.60547 2.64453,-20.73047 z m 19.84766,78.99609 c -10.63672,4.67969 -22.40234,-3.47656 -25.29297,-15.0625 -2.94141,-11.76562 2.76953,-22.95312 10.46094,-25.39062 9.75,-3.09375 18.5625,2.07031 23.66797,13.6914 4.80078,10.92969 2.35937,21.83985 -8.84375,26.76172 z m 42.45312,11.76953 c -7.80859,1.64063 -17.27343,-0.16796 -19.47656,-7.90234 -2.64453,-9.27734 3.58203,-15.91797 13.95313,-18.05859 10.37109,-2.14453 18.55468,4.53125 18.89453,11.08203 0.34375,6.55078 -5.5625,13.24219 -13.3711,14.8789 z M 207.875,187.06641 c -4.91406,13.75 -20.74219,18.51171 -32.83984,12.90234 -11.59375,-4.89844 -17.4961,-16.63672 -13.375,-30.29688 3.47656,-11.55078 16.44921,-19.35156 29.51953,-15.39453 14.13281,4.28125 21.92968,19.73438 16.69531,32.78907 z m 4.73047,-45.95704 c 5.58984,-5.37109 14.99609,-5.89843 21.75,-0.70312 6.8164,5.24609 7.59765,14.49219 3.78125,18.9375 -4.09766,4.76562 -13.02344,7.85547 -20.23438,2.16016 -8.51953,-6.72266 -10.8789,-15.01954 -5.28906,-20.39454 z m 37.12109,61.3125 c -1.76953,10.41797 -11.85156,20.48829 -22.44922,18.87891 -10.59375,-1.62891 -17.17578,-15.32031 -11.97265,-29.02734 5.19922,-13.70703 15.25781,-18.17188 24.3164,-14.25391 9.375,4.0625 11.86328,13.98438 10.10547,24.40234 z m 0,0"
       fill-opacity="1"
       fill-rule="nonzero"
       id="path3"
       style="fill:#57ab27;fill-opacity:1;stroke-width:0.99975;stroke-dasharray:none" />
  </g>
</svg>
