<?xml version="1.0" encoding="UTF-8" standalone="no"?>
<svg
   width="2368"
   zoomAndPan="magnify"
   viewBox="0 0 1776 658.49998"
   height="878"
   preserveAspectRatio="xMidYMid meet"
   version="1.0"
   id="svg36"
   sodipodi:docname="JDAV Logo - Sektion Pfarrkirchen - RGB Light Grau.svg"
   inkscape:version="1.3.2 (091e20e, 2023-11-25, custom)"
   xmlns:inkscape="http://www.inkscape.org/namespaces/inkscape"
   xmlns:sodipodi="http://sodipodi.sourceforge.net/DTD/sodipodi-0.dtd"
   xmlns="http://www.w3.org/2000/svg"
   xmlns:svg="http://www.w3.org/2000/svg">
  <sodipodi:namedview
     id="namedview36"
     pagecolor="#ffffff"
     bordercolor="#999999"
     borderopacity="1"
     inkscape:showpageshadow="0"
     inkscape:pageopacity="0"
     inkscape:pagecheckerboard="0"
     inkscape:deskcolor="#d1d1d1"
     inkscape:zoom="0.36064189"
     inkscape:cx="1175.6815"
     inkscape:cy="661.32084"
     inkscape:window-width="1920"
     inkscape:window-height="1009"
     inkscape:window-x="-8"
     inkscape:window-y="-8"
     inkscape:window-maximized="1"
     inkscape:current-layer="svg36" />
  <defs
     id="defs2">
    <g
       id="g1" />
    <clipPath
       id="009af00435">
      <path
         d="M 0.671875 5 L 339 5 L 339 356 L 0.671875 356 Z M 0.671875 5 "
         clip-rule="nonzero"
         id="path1" />
    </clipPath>
    <clipPath
       id="bc5b556b4e">
      <path
         d="M 0.671875 0 L 1775.324219 0 L 1775.324219 658 L 0.671875 658 Z M 0.671875 0 "
         clip-rule="nonzero"
         id="path2" />
    </clipPath>
  </defs>
  <g
     clip-path="url(#009af00435)"
     id="g3"
     style="stroke-width:0.99974998;stroke-dasharray:none;fill:#57ab27;fill-opacity:1">
    <path
       fill="#707680"
       d="M 295.710938 82.886719 C 262.414062 83.945312 225.726562 110.726562 225.726562 110.726562 C 222.101562 91.28125 233.445312 69.066406 234.175781 60.589844 C 234.824219 52.933594 226.84375 38.84375 208.519531 53.40625 C 190.632812 67.621094 184.410156 98.84375 184.410156 98.84375 C 173.558594 89.75 164.941406 59.976562 160.445312 31.714844 C 159.816406 27.789062 156.601562 6.371094 145.375 5.703125 C 132.242188 4.929688 119.691406 24.777344 118.746094 47.199219 C 117.425781 78.324219 138.066406 110.316406 138.066406 110.316406 C 132.699219 109.917969 120.09375 104.050781 112.894531 100.042969 C 106 96.195312 99.695312 90.089844 91.699219 88.972656 C 83.703125 87.855469 76.914062 93.355469 78.914062 103.273438 C 81.769531 117.449219 104.792969 135.355469 104.792969 135.355469 C 88.304688 133.660156 53.492188 132.320312 32.660156 137.175781 C 4.707031 143.710938 0.671875 152.847656 0.671875 161.71875 C 0.671875 169.222656 9.695312 181.796875 37.441406 188.929688 C 78.269531 199.429688 113.777344 185.101562 113.777344 185.101562 C 105.113281 189.238281 97.605469 198.5625 90.816406 211.535156 C 84.027344 224.5 78.164062 243.101562 70.226562 257.167969 C 65.835938 264.945312 57.105469 278.265625 61.96875 288.394531 C 67.515625 299.96875 80.023438 298.035156 91.847656 292.226562 C 107.789062 284.402344 127.621094 249.433594 136.628906 246.898438 C 137.421875 256.191406 132.746094 278.839844 134.582031 288.058594 C 136.464844 297.53125 144.855469 297.832031 149.464844 295.171875 C 159.328125 289.488281 169.492188 259.96875 169.492188 259.96875 C 169.492188 259.96875 169.355469 287.585938 173.550781 308.789062 C 176.003906 321.152344 186.789062 355.261719 201.597656 355.261719 C 218.480469 355.261719 220.363281 314.476562 221.140625 285.628906 C 221.929688 256.636719 220.105469 237.628906 220.105469 237.628906 C 220.105469 237.628906 235.582031 235.671875 261.226562 260.359375 C 287.347656 285.519531 311.066406 291.320312 320.734375 283.113281 C 327.925781 277.011719 330.671875 262.929688 307.511719 231.410156 C 284.257812 199.761719 262.039062 187.539062 262.039062 187.539062 C 267.769531 188.371094 285.421875 191.316406 296.285156 190.828125 C 307.144531 190.347656 314.722656 187.417969 314.722656 177.976562 C 314.722656 158.789062 264.039062 147.367188 264.039062 147.367188 C 273.9375 135.078125 312.226562 125.320312 324.914062 119.085938 C 336.921875 113.195312 339.910156 106.9375 338.71875 100.484375 C 337.84375 95.753906 329.015625 81.832031 295.71875 82.886719 Z M 157.6875 128.234375 C 159.785156 118.785156 168.847656 113.898438 179.285156 112.925781 C 189.726562 111.949219 200.882812 115.929688 203.15625 125.492188 C 205.417969 135.054688 195.234375 142.472656 180.261719 144.585938 C 166.238281 146.566406 155.144531 139.695312 157.6875 128.226562 Z M 130.414062 147.75 C 134.996094 142.617188 143.050781 139.738281 149.144531 144.78125 C 155.238281 149.820312 155.867188 158.667969 149.660156 166.214844 C 143.449219 173.753906 132.859375 174.070312 127.769531 168.480469 C 122.679688 162.890625 125.835938 152.875 130.414062 147.75 Z M 150.261719 226.746094 C 139.625 231.425781 127.859375 223.269531 124.96875 211.683594 C 122.027344 199.917969 127.738281 188.730469 135.429688 186.292969 C 145.179688 183.199219 153.992188 188.363281 159.097656 199.984375 C 163.898438 210.914062 161.457031 221.824219 150.253906 226.746094 Z M 192.714844 238.515625 C 184.90625 240.15625 175.441406 238.347656 173.238281 230.613281 C 170.59375 221.335938 176.820312 214.695312 187.191406 212.554688 C 197.5625 210.410156 205.746094 217.085938 206.085938 223.636719 C 206.429688 230.1875 200.523438 236.878906 192.714844 238.515625 Z M 207.875 187.066406 C 202.960938 200.816406 187.132812 205.578125 175.035156 199.96875 C 163.441406 195.070312 157.539062 183.332031 161.660156 169.671875 C 165.136719 158.121094 178.109375 150.320312 191.179688 154.277344 C 205.3125 158.558594 213.109375 174.011719 207.875 187.066406 Z M 212.605469 141.109375 C 218.195312 135.738281 227.601562 135.210938 234.355469 140.40625 C 241.171875 145.652344 241.953125 154.898438 238.136719 159.34375 C 234.039062 164.109375 225.113281 167.199219 217.902344 161.503906 C 209.382812 154.78125 207.023438 146.484375 212.613281 141.109375 Z M 249.726562 202.421875 C 247.957031 212.839844 237.875 222.910156 227.277344 221.300781 C 216.683594 219.671875 210.101562 205.980469 215.304688 192.273438 C 220.503906 178.566406 230.5625 174.101562 239.621094 178.019531 C 248.996094 182.082031 251.484375 192.003906 249.726562 202.421875 Z M 249.726562 202.421875 "
       fill-opacity="1"
       fill-rule="nonzero"
       id="path3"
       style="stroke-width:0.99974998;stroke-dasharray:none;fill:#57ab27;fill-opacity:1" />
  </g>
  <path
     fill="#707680"
     d="M 1087.632812 90.679688 C 1087.632812 90.679688 1087.609375 90.679688 1087.609375 90.679688 C 1082.085938 88.828125 1075.441406 88.613281 1069.894531 88.613281 C 1047.996094 88.613281 1042.03125 94.609375 1033.40625 123.140625 L 1017.875 192.230469 C 1014.421875 204.992188 1003.824219 211.746094 998.636719 211.746094 C 990.003906 211.746094 982.847656 205.742188 978.539062 192.230469 L 959.546875 111.132812 C 955.230469 96.121094 942.410156 88.613281 927.742188 88.613281 L 916.148438 88.613281 C 904.066406 88.613281 887.796875 94.609375 899.015625 123.140625 L 953.378906 261.980469 C 959.421875 279.246094 974.957031 286.011719 985.3125 286.011719 L 1005.167969 286.011719 C 1021.554688 286.011719 1032.773438 277.753906 1039.675781 260.488281 L 1087.699219 139.6875 L 1087.699219 139.617188 L 1093.703125 124.285156 C 1104.914062 94.714844 1087.648438 90.695312 1087.625 90.6875 Z M 1087.632812 90.679688 "
     fill-opacity="1"
     fill-rule="nonzero"
     id="path4"
     style="stroke-width:0.99974998;stroke-dasharray:none;fill:#57ab27;fill-opacity:1" />
  <path
     fill="#707680"
     d="M 788.46875 88.597656 C 723.574219 88.597656 706.539062 116.476562 706.539062 129.675781 C 706.539062 142.144531 718.703125 144.347656 730.066406 144.347656 C 764.132812 144.347656 761.691406 120.140625 792.523438 120.140625 C 807.929688 120.140625 820.910156 129.679688 820.910156 144.347656 C 820.910156 152.417969 812.792969 161.953125 786.023438 164.890625 C 720.320312 172.960938 691.140625 197.894531 691.140625 230.90625 C 691.140625 263.917969 715.464844 286.65625 760.890625 286.65625 C 788.476562 286.65625 801.433594 274.921875 820.09375 274.921875 C 830.636719 274.921875 838.753906 281.523438 855.789062 281.523438 C 869.578125 281.523438 879.3125 277.859375 879.3125 263.183594 L 879.3125 153.160156 C 879.3125 100.347656 845.246094 88.613281 788.476562 88.613281 Z M 779.609375 248.96875 C 761.945312 248.96875 750.703125 238.070312 750.703125 225.730469 C 750.703125 205.398438 784.429688 195.226562 801.296875 195.226562 C 815.746094 195.226562 821.367188 203.214844 821.367188 212.660156 C 821.367188 231.542969 800.496094 248.960938 779.617188 248.960938 Z M 779.609375 248.96875 "
     fill-opacity="1"
     fill-rule="nonzero"
     id="path5"
     style="stroke-width:0.99974998;stroke-dasharray:none;fill:#57ab27;fill-opacity:1" />
  <path
     fill="#707680"
     d="M 418.5625 88.605469 L 405.582031 88.605469 C 392.609375 88.605469 382.058594 99.960938 382.058594 114.558594 L 382.058594 277.535156 C 382.058594 291.933594 379.257812 301.332031 365.878906 311.433594 C 358.683594 316.859375 354.480469 324.511719 354.480469 334.859375 C 354.480469 356.046875 367.953125 360.957031 381.503906 360.957031 C 405.515625 360.957031 419.929688 350.132812 427.804688 341.546875 C 427.804688 341.546875 427.796875 341.53125 427.789062 341.53125 C 437.792969 330.707031 443.707031 316.191406 443.707031 300.800781 L 443.707031 118.613281 C 443.707031 98.324219 435.597656 88.605469 418.5625 88.605469 Z M 418.5625 88.605469 "
     fill-opacity="1"
     fill-rule="nonzero"
     id="path6"
     style="stroke-width:0.99974998;stroke-dasharray:none;fill:#57ab27;fill-opacity:1" />
  <path
     fill="#707680"
     d="M 443.144531 9.644531 C 437.230469 1.933594 427.382812 -0.113281 415.242188 -0.113281 C 393.074219 -0.113281 383.648438 6.054688 379.75 14.125 C 377.773438 17.851562 376.632812 22.4375 376.632812 28.109375 C 376.632812 41.789062 380.546875 56.453125 414.757812 56.453125 C 433.328125 56.453125 448.96875 49.613281 448.96875 27.128906 C 448.96875 20.59375 447.402344 14.449219 443.160156 9.644531 Z M 443.144531 9.644531 "
     fill-opacity="1"
     fill-rule="nonzero"
     id="path7"
     style="stroke-width:0.99974998;stroke-dasharray:none;fill:#57ab27;fill-opacity:1" />
  <path
     fill="#707680"
     d="M 649.90625 -0.113281 L 638.46875 -0.113281 C 631.101562 -0.113281 624.640625 3.738281 620.96875 9.644531 L 620.933594 9.644531 C 620.894531 9.71875 620.871094 9.800781 620.835938 9.878906 C 618.894531 13.09375 617.753906 16.878906 617.753906 21.007812 L 617.71875 72.539062 C 616.902344 87.9375 613.664062 94.472656 601.492188 94.472656 C 586.886719 94.472656 578.785156 88.605469 554.4375 88.605469 C 519.558594 88.605469 467.644531 109.507812 467.644531 187.996094 C 467.644531 266.484375 521.191406 286.648438 555.246094 286.648438 C 585.265625 286.648438 587.695312 276.382812 607.976562 276.382812 C 620.949219 276.382812 625.007812 282.25 645.28125 282.25 C 663.933594 282.25 672.050781 274.179688 672.050781 258.777344 L 672.050781 24.304688 C 672.050781 7.800781 664.910156 -0.113281 649.90625 -0.113281 Z M 568.683594 245.925781 C 546.679688 245.925781 523.894531 228.457031 523.894531 186.054688 C 523.894531 135.445312 555.335938 126.175781 571.042969 126.175781 C 597.773438 126.175781 616.625 145.023438 616.625 183.316406 C 616.625 218.886719 601.695312 245.925781 568.683594 245.925781 Z M 568.683594 245.925781 "
     fill-opacity="1"
     fill-rule="nonzero"
     id="path8"
     style="stroke-width:0.99974998;stroke-dasharray:none;fill:#57ab27;fill-opacity:1" />
  <g
     fill="#707680"
     fill-opacity="1"
     id="g30"
     style="stroke-width:0.99974998;stroke-dasharray:none;fill:#57ab27;fill-opacity:1">
    <g
       transform="translate(466.570002, 458.26473)"
       id="g11"
       style="stroke-width:0.99974998;stroke-dasharray:none;fill:#57ab27;fill-opacity:1">
      <g
         id="g10"
         style="stroke-width:0.99974998;stroke-dasharray:none;fill:#57ab27;fill-opacity:1">
        <path
           d="M 29.046875 -32.5625 L 29.046875 0 L 12.078125 0 L 12.078125 -104.734375 L 50.453125 -104.734375 C 74.203125 -104.734375 86.078125 -93.007812 86.078125 -69.5625 C 86.078125 -57.738281 83.117188 -48.613281 77.203125 -42.1875 C 71.296875 -35.769531 62.378906 -32.5625 50.453125 -32.5625 Z M 50.296875 -47.25 C 56.617188 -47.25 61.253906 -49.15625 64.203125 -52.96875 C 67.160156 -56.789062 68.640625 -62.320312 68.640625 -69.5625 C 68.640625 -76.800781 67.160156 -82.023438 64.203125 -85.234375 C 61.253906 -88.441406 56.617188 -90.046875 50.296875 -90.046875 L 29.046875 -90.046875 L 29.046875 -47.25 Z M 50.296875 -47.25 "
           id="path10"
           style="stroke-width:0.99974998;stroke-dasharray:none;fill:#57ab27;fill-opacity:1" />
      </g>
    </g>
    <g
       transform="translate(556.924389, 458.26473)"
       id="g13"
       style="stroke-width:0.99974998;stroke-dasharray:none;fill:#57ab27;fill-opacity:1">
      <g
         id="g12"
         style="stroke-width:0.99974998;stroke-dasharray:none;fill:#57ab27;fill-opacity:1">
        <path
           d="M 30.125 0 L 13.609375 0 L 13.609375 -62.21875 L 4.734375 -62.21875 L 4.734375 -76.453125 L 13.609375 -76.453125 L 13.609375 -81.34375 C 13.609375 -88.675781 14.296875 -94.429688 15.671875 -98.609375 C 17.046875 -102.796875 19.3125 -105.726562 22.46875 -107.40625 C 25.632812 -109.082031 29.867188 -109.921875 35.171875 -109.921875 C 36.898438 -109.921875 39.0625 -109.789062 41.65625 -109.53125 C 44.257812 -109.28125 46.578125 -109.03125 48.609375 -108.78125 C 50.648438 -108.53125 51.671875 -108.40625 51.671875 -108.40625 L 51.53125 -94.796875 C 51.53125 -94.796875 50.835938 -94.816406 49.453125 -94.859375 C 48.078125 -94.910156 46.445312 -94.960938 44.5625 -95.015625 C 42.675781 -95.066406 40.921875 -95.09375 39.296875 -95.09375 C 35.828125 -95.09375 33.429688 -94.097656 32.109375 -92.109375 C 30.785156 -90.128906 30.125 -86.488281 30.125 -81.1875 L 30.125 -76.453125 L 50.296875 -76.453125 L 50.296875 -62.21875 L 30.125 -62.21875 Z M 30.125 0 "
           id="path11"
           style="stroke-width:0.99974998;stroke-dasharray:none;fill:#57ab27;fill-opacity:1" />
      </g>
    </g>
    <g
       transform="translate(609.82222, 458.26473)"
       id="g15"
       style="stroke-width:0.99974998;stroke-dasharray:none;fill:#57ab27;fill-opacity:1">
      <g
         id="g14"
         style="stroke-width:0.99974998;stroke-dasharray:none;fill:#57ab27;fill-opacity:1">
        <path
           d="M 66.65625 -18.046875 C 66.863281 -15.796875 67.476562 -14.132812 68.5 -13.0625 C 69.519531 -12 71.148438 -11.316406 73.390625 -11.015625 L 72.921875 1.6875 C 68.234375 1.6875 64.382812 1.300781 61.375 0.53125 C 58.375 -0.226562 55.445312 -1.726562 52.59375 -3.96875 C 52.59375 -3.96875 51.394531 -3.484375 49 -2.515625 C 46.601562 -1.546875 43.546875 -0.601562 39.828125 0.3125 C 36.109375 1.226562 32.160156 1.6875 27.984375 1.6875 C 12.796875 1.6875 5.203125 -6.414062 5.203125 -22.625 C 5.203125 -30.78125 7.363281 -36.488281 11.6875 -39.75 C 16.019531 -43.007812 22.265625 -45 30.421875 -45.71875 L 50.140625 -47.390625 L 50.140625 -52.90625 C 50.140625 -57.082031 49.222656 -59.957031 47.390625 -61.53125 C 45.554688 -63.113281 42.753906 -63.90625 38.984375 -63.90625 C 36.441406 -63.90625 33.535156 -63.828125 30.265625 -63.671875 C 27.003906 -63.523438 23.84375 -63.347656 20.78125 -63.140625 C 17.726562 -62.941406 15.207031 -62.765625 13.21875 -62.609375 C 11.238281 -62.453125 10.25 -62.375 10.25 -62.375 L 9.625 -74.15625 C 9.625 -74.15625 10.539062 -74.359375 12.375 -74.765625 C 14.21875 -75.171875 16.664062 -75.628906 19.71875 -76.140625 C 22.78125 -76.648438 26.117188 -77.109375 29.734375 -77.515625 C 33.359375 -77.921875 36.898438 -78.125 40.359375 -78.125 C 49.734375 -78.125 56.457031 -76.109375 60.53125 -72.078125 C 64.613281 -68.054688 66.65625 -61.664062 66.65625 -52.90625 Z M 32.40625 -33.9375 C 25.375 -33.332031 21.859375 -29.71875 21.859375 -23.09375 C 21.859375 -19.625 22.625 -16.894531 24.15625 -14.90625 C 25.6875 -12.914062 28.03125 -11.921875 31.1875 -11.921875 C 34.144531 -11.921875 37.078125 -12.203125 39.984375 -12.765625 C 42.890625 -13.328125 45.304688 -13.890625 47.234375 -14.453125 C 49.171875 -15.015625 50.140625 -15.296875 50.140625 -15.296875 L 50.140625 -35.625 Z M 32.40625 -33.9375 "
           id="path13"
           style="stroke-width:0.99974998;stroke-dasharray:none;fill:#57ab27;fill-opacity:1" />
      </g>
    </g>
    <g
       transform="translate(687.334359, 458.26473)"
       id="g17"
       style="stroke-width:0.99974998;stroke-dasharray:none;fill:#57ab27;fill-opacity:1">
      <g
         id="g16"
         style="stroke-width:0.99974998;stroke-dasharray:none;fill:#57ab27;fill-opacity:1">
        <path
           d="M 10.09375 -76.453125 L 26.609375 -76.453125 L 26.609375 -67.265625 C 26.609375 -67.265625 27.878906 -68.003906 30.421875 -69.484375 C 32.972656 -70.960938 36.234375 -72.566406 40.203125 -74.296875 C 44.179688 -76.035156 48.3125 -77.3125 52.59375 -78.125 L 52.59375 -61.46875 C 48.007812 -60.550781 43.753906 -59.453125 39.828125 -58.171875 C 35.898438 -56.898438 32.738281 -55.78125 30.34375 -54.8125 C 27.945312 -53.84375 26.75 -53.359375 26.75 -53.359375 L 26.75 0 L 10.09375 0 Z M 10.09375 -76.453125 "
           id="path15"
           style="stroke-width:0.99974998;stroke-dasharray:none;fill:#57ab27;fill-opacity:1" />
      </g>
    </g>
    <g
       transform="translate(742.525448, 458.26473)"
       id="g19"
       style="stroke-width:0.99974998;stroke-dasharray:none;fill:#57ab27;fill-opacity:1">
      <g
         id="g18"
         style="stroke-width:0.99974998;stroke-dasharray:none;fill:#57ab27;fill-opacity:1">
        <path
           d="M 10.09375 -76.453125 L 26.609375 -76.453125 L 26.609375 -67.265625 C 26.609375 -67.265625 27.878906 -68.003906 30.421875 -69.484375 C 32.972656 -70.960938 36.234375 -72.566406 40.203125 -74.296875 C 44.179688 -76.035156 48.3125 -77.3125 52.59375 -78.125 L 52.59375 -61.46875 C 48.007812 -60.550781 43.753906 -59.453125 39.828125 -58.171875 C 35.898438 -56.898438 32.738281 -55.78125 30.34375 -54.8125 C 27.945312 -53.84375 26.75 -53.359375 26.75 -53.359375 L 26.75 0 L 10.09375 0 Z M 10.09375 -76.453125 "
           id="path17"
           style="stroke-width:0.99974998;stroke-dasharray:none;fill:#57ab27;fill-opacity:1" />
      </g>
    </g>
    <g
       transform="translate(797.716538, 458.26473)"
       id="g21"
       style="stroke-width:0.99974998;stroke-dasharray:none;fill:#57ab27;fill-opacity:1">
      <g
         id="g20"
         style="stroke-width:0.99974998;stroke-dasharray:none;fill:#57ab27;fill-opacity:1">
        <path
           d="M 10.09375 0 L 10.09375 -108.25 L 26.75 -108.25 L 26.75 -45.71875 L 36.234375 -46.625 L 54.28125 -76.453125 L 72.921875 -76.453125 L 50.90625 -40.671875 L 74.15625 0 L 55.34375 0 L 36.6875 -32.265625 L 26.75 -31.1875 L 26.75 0 Z M 10.09375 0 "
           id="path19"
           style="stroke-width:0.99974998;stroke-dasharray:none;fill:#57ab27;fill-opacity:1" />
      </g>
    </g>
    <g
       transform="translate(874.005606, 458.26473)"
       id="g23"
       style="stroke-width:0.99974998;stroke-dasharray:none;fill:#57ab27;fill-opacity:1">
      <g
         id="g22"
         style="stroke-width:0.99974998;stroke-dasharray:none;fill:#57ab27;fill-opacity:1">
        <path
           d="M 10.09375 -107.03125 L 26.75 -107.03125 L 26.75 -89.4375 L 10.09375 -89.4375 Z M 10.09375 -76.453125 L 26.75 -76.453125 L 26.75 0 L 10.09375 0 Z M 10.09375 -76.453125 "
           id="path21"
           style="stroke-width:0.99974998;stroke-dasharray:none;fill:#57ab27;fill-opacity:1" />
      </g>
    </g>
    <g
       transform="translate(910.850627, 458.26473)"
       id="g25"
       style="stroke-width:0.99974998;stroke-dasharray:none;fill:#57ab27;fill-opacity:1">
      <g
         id="g24"
         style="stroke-width:0.99974998;stroke-dasharray:none;fill:#57ab27;fill-opacity:1">
        <path
           d="M 10.09375 -76.453125 L 26.609375 -76.453125 L 26.609375 -67.265625 C 26.609375 -67.265625 27.878906 -68.003906 30.421875 -69.484375 C 32.972656 -70.960938 36.234375 -72.566406 40.203125 -74.296875 C 44.179688 -76.035156 48.3125 -77.3125 52.59375 -78.125 L 52.59375 -61.46875 C 48.007812 -60.550781 43.753906 -59.453125 39.828125 -58.171875 C 35.898438 -56.898438 32.738281 -55.78125 30.34375 -54.8125 C 27.945312 -53.84375 26.75 -53.359375 26.75 -53.359375 L 26.75 0 L 10.09375 0 Z M 10.09375 -76.453125 "
           id="path23"
           style="stroke-width:0.99974998;stroke-dasharray:none;fill:#57ab27;fill-opacity:1" />
      </g>
    </g>
    <g
       transform="translate(966.041716, 458.26473)"
       id="g27"
       style="stroke-width:0.99974998;stroke-dasharray:none;fill:#57ab27;fill-opacity:1">
      <g
         id="g26"
         style="stroke-width:0.99974998;stroke-dasharray:none;fill:#57ab27;fill-opacity:1">
        <path
           d="M 38.6875 -78.125 C 40.71875 -78.125 43.03125 -77.96875 45.625 -77.65625 C 48.226562 -77.351562 50.753906 -77.023438 53.203125 -76.671875 C 55.648438 -76.316406 57.660156 -75.984375 59.234375 -75.671875 C 60.816406 -75.367188 61.609375 -75.21875 61.609375 -75.21875 L 61 -62.078125 C 61 -62.078125 59.898438 -62.175781 57.703125 -62.375 C 55.515625 -62.582031 53.019531 -62.785156 50.21875 -62.984375 C 47.414062 -63.191406 45.046875 -63.296875 43.109375 -63.296875 C 37.816406 -63.296875 33.765625 -62.503906 30.953125 -60.921875 C 28.148438 -59.347656 26.210938 -56.828125 25.140625 -53.359375 C 24.078125 -49.890625 23.546875 -45.203125 23.546875 -39.296875 C 23.546875 -32.773438 24.03125 -27.601562 25 -23.78125 C 25.96875 -19.957031 27.878906 -17.226562 30.734375 -15.59375 C 33.585938 -13.96875 37.765625 -13.15625 43.265625 -13.15625 C 45.203125 -13.15625 47.570312 -13.253906 50.375 -13.453125 C 53.175781 -13.660156 55.671875 -13.863281 57.859375 -14.0625 C 60.054688 -14.269531 61.15625 -14.375 61.15625 -14.375 L 61.609375 -1.0625 C 61.609375 -1.0625 60.789062 -0.9375 59.15625 -0.6875 C 57.53125 -0.4375 55.46875 -0.109375 52.96875 0.296875 C 50.476562 0.710938 47.90625 1.046875 45.25 1.296875 C 42.601562 1.554688 40.3125 1.6875 38.375 1.6875 C 30.53125 1.6875 24.285156 0.3125 19.640625 -2.4375 C 15.003906 -5.195312 11.691406 -9.582031 9.703125 -15.59375 C 7.722656 -21.601562 6.734375 -29.503906 6.734375 -39.296875 C 6.734375 -52.953125 9.203125 -62.835938 14.140625 -68.953125 C 19.085938 -75.066406 27.269531 -78.125 38.6875 -78.125 Z M 38.6875 -78.125 "
           id="path25"
           style="stroke-width:0.99974998;stroke-dasharray:none;fill:#57ab27;fill-opacity:1" />
      </g>
    </g>
    <g
       transform="translate(1033.616402, 458.26473)"
       id="g29"
       style="stroke-width:0.99974998;stroke-dasharray:none;fill:#57ab27;fill-opacity:1">
      <g
         id="g28"
         style="stroke-width:0.99974998;stroke-dasharray:none;fill:#57ab27;fill-opacity:1">
        <path
           d="M 10.09375 0 L 10.09375 -108.25 L 26.75 -108.25 L 26.75 -72.46875 C 26.75 -72.46875 27.816406 -72.953125 29.953125 -73.921875 C 32.097656 -74.890625 34.800781 -75.832031 38.0625 -76.75 C 41.332031 -77.664062 44.546875 -78.125 47.703125 -78.125 C 54.835938 -78.125 60.289062 -76.773438 64.0625 -74.078125 C 67.832031 -71.378906 70.457031 -67.273438 71.9375 -61.765625 C 73.414062 -56.265625 74.15625 -49.332031 74.15625 -40.96875 L 74.15625 0 L 57.484375 0 L 57.484375 -40.515625 C 57.484375 -48.160156 56.691406 -53.867188 55.109375 -57.640625 C 53.535156 -61.410156 49.789062 -63.296875 43.875 -63.296875 C 41.125 -63.296875 38.421875 -63.015625 35.765625 -62.453125 C 33.117188 -61.890625 30.953125 -61.328125 29.265625 -60.765625 C 27.585938 -60.210938 26.75 -59.9375 26.75 -59.9375 L 26.75 0 Z M 10.09375 0 "
           id="path27"
           style="stroke-width:0.99974998;stroke-dasharray:none;fill:#57ab27;fill-opacity:1" />
      </g>
    </g>
  </g>
  <g
     fill="#707680"
     fill-opacity="1"
     id="g33"
     style="stroke-width:0.99974998;stroke-dasharray:none;fill:#57ab27;fill-opacity:1">
    <g
       transform="translate(1117.091028, 458.26473)"
       id="g32"
       style="stroke-width:0.99974998;stroke-dasharray:none;fill:#57ab27;fill-opacity:1">
      <g
         id="g31"
         style="stroke-width:0.99974998;stroke-dasharray:none;fill:#57ab27;fill-opacity:1">
        <path
           d="M 40.671875 -12.84375 C 43.722656 -12.84375 46.878906 -12.914062 50.140625 -13.0625 C 53.410156 -13.21875 56.445312 -13.375 59.25 -13.53125 C 62.050781 -13.6875 64.34375 -13.835938 66.125 -13.984375 C 67.90625 -14.140625 68.796875 -14.21875 68.796875 -14.21875 L 69.109375 -1.828125 C 69.109375 -1.828125 68.140625 -1.648438 66.203125 -1.296875 C 64.265625 -0.941406 61.765625 -0.535156 58.703125 -0.078125 C 55.648438 0.378906 52.3125 0.785156 48.6875 1.140625 C 45.070312 1.503906 41.582031 1.6875 38.21875 1.6875 C 26.800781 1.6875 18.644531 -1.472656 13.75 -7.796875 C 8.863281 -14.117188 6.421875 -24.003906 6.421875 -37.453125 C 6.421875 -51.421875 9.320312 -61.691406 15.125 -68.265625 C 20.9375 -74.835938 29.09375 -78.125 39.59375 -78.125 C 50.300781 -78.125 58.328125 -75.269531 63.671875 -69.5625 C 69.023438 -63.851562 71.703125 -55.035156 71.703125 -43.109375 L 70.640625 -31.1875 L 23.234375 -31.1875 C 23.335938 -25.070312 24.6875 -20.484375 27.28125 -17.421875 C 29.882812 -14.367188 34.347656 -12.84375 40.671875 -12.84375 Z M 55.34375 -44.03125 C 55.34375 -51.675781 54.117188 -56.972656 51.671875 -59.921875 C 49.222656 -62.878906 45.195312 -64.359375 39.59375 -64.359375 C 33.988281 -64.359375 29.859375 -62.804688 27.203125 -59.703125 C 24.554688 -56.597656 23.1875 -51.375 23.09375 -44.03125 Z M 55.34375 -44.03125 "
           id="path30"
           style="stroke-width:0.99974998;stroke-dasharray:none;fill:#57ab27;fill-opacity:1" />
      </g>
    </g>
  </g>
  <g
     fill="#707680"
     fill-opacity="1"
     id="g36"
     style="stroke-width:0.99974998;stroke-dasharray:none;fill:#57ab27;fill-opacity:1">
    <g
       transform="translate(1194.756066, 458.26473)"
       id="g35"
       style="stroke-width:0.99974998;stroke-dasharray:none;fill:#57ab27;fill-opacity:1">
      <g
         id="g34"
         style="stroke-width:0.99974998;stroke-dasharray:none;fill:#57ab27;fill-opacity:1">
        <path
           d="M 10.09375 0 L 10.09375 -76.453125 L 26.609375 -76.453125 L 26.609375 -71.703125 C 26.609375 -71.703125 27.675781 -72.238281 29.8125 -73.3125 C 31.957031 -74.382812 34.660156 -75.453125 37.921875 -76.515625 C 41.179688 -77.585938 44.441406 -78.125 47.703125 -78.125 C 54.835938 -78.125 60.289062 -76.773438 64.0625 -74.078125 C 67.832031 -71.378906 70.457031 -67.273438 71.9375 -61.765625 C 73.414062 -56.265625 74.15625 -49.332031 74.15625 -40.96875 L 74.15625 0 L 57.640625 0 L 57.640625 -40.515625 C 57.640625 -48.160156 56.820312 -53.867188 55.1875 -57.640625 C 53.5625 -61.410156 49.84375 -63.296875 44.03125 -63.296875 C 41.070312 -63.296875 38.265625 -62.960938 35.609375 -62.296875 C 32.960938 -61.640625 30.820312 -60.976562 29.1875 -60.3125 C 27.5625 -59.65625 26.75 -59.328125 26.75 -59.328125 L 26.75 0 Z M 10.09375 0 "
           id="path33"
           style="stroke-width:0.99974998;stroke-dasharray:none;fill:#57ab27;fill-opacity:1" />
      </g>
    </g>
  </g>
</svg>
